<svg xmlns="http://www.w3.org/2000/svg" xmlns:xlink="http://www.w3.org/1999/xlink" viewBox="0 0 167.42 167.42"><defs><style>.cls-1{isolation:isolate;}.cls-2{fill:url(#linear-gradient);}.cls-3{fill:url(#linear-gradient-2);}.cls-4{fill:#1e1d3f;}.cls-5{fill:url(#radial-gradient);}.cls-6{fill:url(#linear-gradient-3);}.cls-7{fill:url(#linear-gradient-4);}.cls-11,.cls-13,.cls-14,.cls-16,.cls-54,.cls-8{mix-blend-mode:overlay;}.cls-8{fill:url(#linear-gradient-5);}.cls-9{fill:url(#linear-gradient-6);}.cls-10{fill:url(#linear-gradient-7);}.cls-11,.cls-58{fill:#fff;}.cls-12{fill:url(#linear-gradient-8);}.cls-13{fill:url(#linear-gradient-10);}.cls-14,.cls-27{fill:#1f1e21;}.cls-14{opacity:0.6;}.cls-15{fill:url(#linear-gradient-11);}.cls-16{opacity:0.4;fill:url(#linear-gradient-12);}.cls-17{opacity:0.2;fill:url(#linear-gradient-13);}.cls-18{fill:url(#linear-gradient-14);}.cls-19{fill:url(#linear-gradient-15);}.cls-20{fill:url(#linear-gradient-16);}.cls-21{fill:url(#linear-gradient-17);}.cls-22{fill:url(#linear-gradient-18);}.cls-23{fill:url(#linear-gradient-19);}.cls-24{fill:url(#linear-gradient-20);}.cls-25{fill:url(#linear-gradient-21);}.cls-26{fill:url(#linear-gradient-22);}.cls-28{fill:url(#linear-gradient-23);}.cls-29{fill:url(#linear-gradient-24);}.cls-30{fill:url(#linear-gradient-25);}.cls-31{fill:url(#linear-gradient-26);}.cls-32{fill:url(#linear-gradient-27);}.cls-33{fill:#eed264;}.cls-34{fill:url(#linear-gradient-28);}.cls-35{fill:url(#radial-gradient-2);}.cls-36{fill:url(#linear-gradient-29);}.cls-37{fill:url(#linear-gradient-30);}.cls-38{fill:url(#linear-gradient-31);}.cls-39{fill:url(#linear-gradient-32);}.cls-40{fill:url(#linear-gradient-33);}.cls-41{fill:url(#radial-gradient-3);}.cls-42{fill:url(#linear-gradient-34);}.cls-43{fill:url(#linear-gradient-35);}.cls-44{fill:url(#linear-gradient-36);}.cls-45{fill:url(#linear-gradient-37);}.cls-46{fill:url(#linear-gradient-38);}.cls-47{fill:url(#radial-gradient-4);}.cls-48{fill:url(#linear-gradient-39);}.cls-49{fill:url(#linear-gradient-40);}.cls-50{fill:url(#linear-gradient-41);}.cls-51{fill:url(#linear-gradient-42);}.cls-52{fill:url(#linear-gradient-43);}.cls-53{fill:url(#radial-gradient-5);}.cls-55,.cls-56{fill:none;stroke:#fff;stroke-linecap:round;stroke-linejoin:round;}.cls-55{stroke-width:0.5px;}.cls-56{stroke-width:0.25px;}.cls-57{mix-blend-mode:soft-light;}.cls-59{font-size:16.41px;fill:#e2eef7;font-family:Montserrat-Bold, Montserrat;font-weight:700;}</style><linearGradient id="linear-gradient" x1="593.2" y1="1415.56" x2="593.2" y2="1249.7" gradientTransform="translate(1116.07 -29.14) rotate(45)" gradientUnits="userSpaceOnUse"><stop offset="0.1" stop-color="#91b4d0"/><stop offset="0.33" stop-color="#afc7e0"/><stop offset="0.6" stop-color="#cdd9f0"/><stop offset="0.83" stop-color="#dfe4fa"/><stop offset="1" stop-color="#e6e8fd"/></linearGradient><linearGradient id="linear-gradient-2" x1="650.66" y1="1275.19" x2="535.87" y2="1389.98" xlink:href="#linear-gradient"/><radialGradient id="radial-gradient" cx="639.94" cy="1266.04" r="54.22" gradientTransform="matrix(1, 0, 0, 0.42, -49.49, 841.85)" gradientUnits="userSpaceOnUse"><stop offset="0.15"/><stop offset="1" stop-opacity="0"/></radialGradient><linearGradient id="linear-gradient-3" x1="567.13" y1="1374.55" x2="593.89" y2="1313.21" gradientUnits="userSpaceOnUse"><stop offset="0" stop-color="#382e6b"/><stop offset="0.63" stop-color="#4a3d8b"/><stop offset="0.7" stop-color="#514494"/><stop offset="0.82" stop-color="#6455ad"/><stop offset="0.88" stop-color="#6e5fba"/></linearGradient><linearGradient id="linear-gradient-4" x1="580.7" y1="1381.02" x2="633.61" y2="1316.45" gradientUnits="userSpaceOnUse"><stop offset="0" stop-color="#4a3d8b"/><stop offset="0.52" stop-color="#5b4da2"/><stop offset="1" stop-color="#6e5fba"/></linearGradient><linearGradient id="linear-gradient-5" x1="606.79" y1="1349.18" x2="633.58" y2="1316.49" gradientUnits="userSpaceOnUse"><stop offset="0.29" stop-color="#e6e8fd" stop-opacity="0"/><stop offset="1" stop-color="#e6e8fd"/></linearGradient><linearGradient id="linear-gradient-6" x1="587.41" y1="1340.12" x2="583.35" y2="1340.27" gradientUnits="userSpaceOnUse"><stop offset="0" stop-color="#91b4d0"/><stop offset="0.27" stop-color="#a4c0da"/><stop offset="0.82" stop-color="#d5def4"/><stop offset="1" stop-color="#e6e8fd"/></linearGradient><linearGradient id="linear-gradient-7" x1="587.41" y1="1364.48" x2="583.35" y2="1364.62" xlink:href="#linear-gradient-6"/><linearGradient id="linear-gradient-8" x1="586.76" y1="1373.73" x2="627.72" y2="1323.73" gradientUnits="userSpaceOnUse"><stop offset="0" stop-color="#382e6b"/><stop offset="0.32" stop-color="#4a3d8b"/><stop offset="0.53" stop-color="#554799"/><stop offset="0.88" stop-color="#6e5fba"/></linearGradient><linearGradient id="linear-gradient-10" x1="606.53" y1="1349.59" x2="627.7" y2="1323.76" xlink:href="#linear-gradient-5"/><linearGradient id="linear-gradient-11" x1="586.41" y1="1374.1" x2="627.16" y2="1324.35" xlink:href="#linear-gradient-8"/><linearGradient id="linear-gradient-12" x1="615.62" y1="1316.28" x2="581.19" y2="1337.91" gradientUnits="userSpaceOnUse"><stop offset="0" stop-color="#e6e8fd"/><stop offset="0.71" stop-color="#e6e8fd" stop-opacity="0"/></linearGradient><linearGradient id="linear-gradient-13" x1="566.68" y1="1323.04" x2="572.16" y2="1314.17" gradientUnits="userSpaceOnUse"><stop offset="0.16" stop-color="#e6e8fd" stop-opacity="0"/><stop offset="0.59" stop-color="#e6e8fd"/><stop offset="0.94" stop-color="#e6e8fd" stop-opacity="0"/></linearGradient><linearGradient id="linear-gradient-14" x1="2960.39" y1="-1149.36" x2="2983.46" y2="-1149.36" gradientTransform="matrix(0.65, -0.81, 0.76, 0.6, -453.93, 4431.19)" gradientUnits="userSpaceOnUse"><stop offset="0.31" stop-color="#e6e8fd"/><stop offset="0.44" stop-color="#dfe4fa"/><stop offset="0.62" stop-color="#cdd9f0"/><stop offset="0.83" stop-color="#afc7e0"/><stop offset="1" stop-color="#91b4d0"/></linearGradient><linearGradient id="linear-gradient-15" x1="2960.81" y1="-1149.36" x2="2983.04" y2="-1149.36" gradientTransform="matrix(0.65, -0.81, 0.76, 0.6, -453.93, 4431.19)" gradientUnits="userSpaceOnUse"><stop offset="0" stop-color="#91b4d0"/><stop offset="0.17" stop-color="#afc7e0"/><stop offset="0.38" stop-color="#cdd9f0"/><stop offset="0.56" stop-color="#dfe4fa"/><stop offset="0.69" stop-color="#e6e8fd"/></linearGradient><linearGradient id="linear-gradient-16" x1="2961.71" y1="-1138.7" x2="2982.12" y2="-1160.01" xlink:href="#linear-gradient-15"/><linearGradient id="linear-gradient-17" x1="2972.06" y1="-1161.16" x2="2972.06" y2="-1165.55" xlink:href="#linear-gradient-15"/><linearGradient id="linear-gradient-18" x1="2971.78" y1="-1133.24" x2="2971.78" y2="-1137.39" xlink:href="#linear-gradient-15"/><linearGradient id="linear-gradient-19" x1="7204.39" y1="1623.42" x2="7208.67" y2="1623.42" gradientTransform="matrix(-0.76, -0.6, 0.65, -0.81, 5011.99, 6959.71)" xlink:href="#linear-gradient-15"/><linearGradient id="linear-gradient-20" x1="7204.72" y1="1651.46" x2="7209" y2="1651.46" gradientTransform="matrix(-0.76, -0.6, 0.65, -0.81, 5011.99, 6959.71)" xlink:href="#linear-gradient-15"/><linearGradient id="linear-gradient-21" x1="7203" y1="1637.44" x2="7210.4" y2="1637.44" gradientTransform="matrix(-0.76, -0.6, 0.65, -0.81, 5011.99, 6959.71)" xlink:href="#linear-gradient-14"/><linearGradient id="linear-gradient-22" x1="7203.61" y1="1637.44" x2="7209.79" y2="1637.44" gradientTransform="matrix(-0.76, -0.6, 0.65, -0.81, 5011.99, 6959.71)" xlink:href="#linear-gradient-15"/><linearGradient id="linear-gradient-23" x1="578.1" y1="1489.72" x2="578.79" y2="1488.74" gradientTransform="matrix(1, 0.07, -0.07, 1, -384.84, -1461.57)" xlink:href="#linear-gradient-4"/><linearGradient id="linear-gradient-24" x1="-1576.19" y1="3539.39" x2="-1581.87" y2="3527.61" gradientTransform="matrix(0.83, 0.56, -0.56, 0.83, 3871.85, -750.74)" gradientUnits="userSpaceOnUse"><stop offset="0" stop-color="#b75d25"/><stop offset="0.2" stop-color="#c06b2a"/><stop offset="0.27" stop-color="#c4712c"/><stop offset="0.66" stop-color="#d79036"/></linearGradient><linearGradient id="linear-gradient-25" x1="-1578.01" y1="3540.27" x2="-1583.49" y2="3528.9" gradientTransform="matrix(0.83, 0.56, -0.56, 0.83, 3871.85, -750.74)" gradientUnits="userSpaceOnUse"><stop offset="0" stop-color="#b75d25"/><stop offset="0.75" stop-color="#c06b2a"/><stop offset="1" stop-color="#c4712c"/></linearGradient><linearGradient id="linear-gradient-26" x1="-1574.12" y1="3538.02" x2="-1581.49" y2="3527.23" gradientTransform="matrix(0.83, 0.56, -0.56, 0.83, 3871.85, -750.74)" gradientUnits="userSpaceOnUse"><stop offset="0" stop-color="#d79036"/><stop offset="0.28" stop-color="#dc9e40"/><stop offset="0.81" stop-color="#e9c35a"/><stop offset="1" stop-color="#eed264"/></linearGradient><linearGradient id="linear-gradient-27" x1="-1575.38" y1="3528.07" x2="-1580.28" y2="3537.25" gradientTransform="matrix(0.83, 0.56, -0.56, 0.83, 3871.85, -750.74)" gradientUnits="userSpaceOnUse"><stop offset="0" stop-color="#fbe7ff"/><stop offset="0.11" stop-color="#fae6f5"/><stop offset="0.3" stop-color="#f8e2d9"/><stop offset="0.55" stop-color="#f4dcac"/><stop offset="0.85" stop-color="#efd36e"/><stop offset="0.89" stop-color="#eed264"/></linearGradient><linearGradient id="linear-gradient-28" x1="-1582.47" y1="3528.2" x2="-1572.75" y2="3533.39" gradientTransform="matrix(0.83, 0.56, -0.56, 0.83, 3871.85, -750.74)" gradientUnits="userSpaceOnUse"><stop offset="0" stop-color="#b75d25"/><stop offset="0.11" stop-color="#c06b2a"/><stop offset="0.32" stop-color="#d79036"/><stop offset="1" stop-color="#e1ad4a"/></linearGradient><radialGradient id="radial-gradient-2" cx="-1327.28" cy="3365.32" r="8.41" gradientTransform="matrix(0.91, 0.56, -0.61, 0.83, 3843.44, -750.74)" gradientUnits="userSpaceOnUse"><stop offset="0" stop-color="#fbe796"/><stop offset="0.31" stop-color="#f8e28b"/><stop offset="0.86" stop-color="#f0d66d"/><stop offset="1" stop-color="#eed264"/></radialGradient><linearGradient id="linear-gradient-29" x1="-618.51" y1="1248.82" x2="-624.19" y2="1237.03" gradientTransform="translate(138.99 -24.27) rotate(-45.94)" xlink:href="#linear-gradient-24"/><linearGradient id="linear-gradient-30" x1="-620.33" y1="1249.7" x2="-625.82" y2="1238.32" gradientTransform="translate(138.99 -24.27) rotate(-45.94)" xlink:href="#linear-gradient-25"/><linearGradient id="linear-gradient-31" x1="-616.44" y1="1247.45" x2="-623.81" y2="1236.66" gradientTransform="translate(138.99 -24.27) rotate(-45.94)" xlink:href="#linear-gradient-26"/><linearGradient id="linear-gradient-32" x1="-617.7" y1="1237.49" x2="-622.6" y2="1246.68" gradientTransform="translate(138.99 -24.27) rotate(-45.94)" xlink:href="#linear-gradient-27"/><linearGradient id="linear-gradient-33" x1="-624.79" y1="1237.63" x2="-615.07" y2="1242.81" gradientTransform="translate(138.99 -24.27) rotate(-45.94)" xlink:href="#linear-gradient-28"/><radialGradient id="radial-gradient-3" cx="-515.88" cy="1173.19" r="8.41" gradientTransform="matrix(0.71, -0.79, 0.71, 0.75, 133.57, 3.62)" xlink:href="#radial-gradient-2"/><linearGradient id="linear-gradient-34" x1="-1324.97" y1="1860.23" x2="-1330.65" y2="1848.45" gradientTransform="matrix(0.94, -0.35, 0.35, 0.94, 1177.45, -904.48)" xlink:href="#linear-gradient-24"/><linearGradient id="linear-gradient-35" x1="-1326.79" y1="1861.11" x2="-1332.27" y2="1849.74" gradientTransform="matrix(0.94, -0.35, 0.35, 0.94, 1177.45, -904.48)" xlink:href="#linear-gradient-25"/><linearGradient id="linear-gradient-36" x1="-1322.9" y1="1858.86" x2="-1330.26" y2="1848.08" gradientTransform="matrix(0.94, -0.35, 0.35, 0.94, 1177.45, -904.48)" xlink:href="#linear-gradient-26"/><linearGradient id="linear-gradient-37" x1="-1324.16" y1="1848.91" x2="-1329.06" y2="1858.09" gradientTransform="matrix(0.94, -0.35, 0.35, 0.94, 1177.45, -904.48)" xlink:href="#linear-gradient-27"/><linearGradient id="linear-gradient-38" x1="-1331.25" y1="1849.04" x2="-1321.53" y2="1854.23" gradientTransform="matrix(0.94, -0.35, 0.35, 0.94, 1177.45, -904.48)" xlink:href="#linear-gradient-28"/><radialGradient id="radial-gradient-4" cx="-1155.96" cy="1740.71" r="8.41" gradientTransform="matrix(0.98, -0.41, 0.31, 0.98, 1159.7, -881.37)" xlink:href="#radial-gradient-2"/><linearGradient id="linear-gradient-39" x1="-1669.67" y1="2692.81" x2="-1675.35" y2="2681.02" gradientTransform="translate(2644.68 -1124.75) rotate(8.83)" xlink:href="#linear-gradient-24"/><linearGradient id="linear-gradient-40" x1="-1671.49" y1="2693.69" x2="-1676.98" y2="2682.31" gradientTransform="translate(2644.68 -1124.75) rotate(8.83)" xlink:href="#linear-gradient-25"/><linearGradient id="linear-gradient-41" x1="-1667.6" y1="2691.44" x2="-1674.97" y2="2680.65" gradientTransform="translate(2644.68 -1124.75) rotate(8.83)" xlink:href="#linear-gradient-26"/><linearGradient id="linear-gradient-42" x1="-1668.87" y1="2681.48" x2="-1673.76" y2="2690.67" gradientTransform="translate(2644.68 -1124.75) rotate(8.83)" xlink:href="#linear-gradient-27"/><linearGradient id="linear-gradient-43" x1="-1675.96" y1="2681.62" x2="-1666.23" y2="2686.8" gradientTransform="translate(2644.68 -1124.75) rotate(8.83)" xlink:href="#linear-gradient-28"/><radialGradient id="radial-gradient-5" cx="-1447.88" cy="2537.17" r="8.41" gradientTransform="matrix(1.06, 0.12, -0.2, 1.01, 2618.18, -1112.62)" xlink:href="#radial-gradient-2"/></defs><title>Untitled-1</title><g class="cls-1"><g id="Layer_1" data-name="Layer 1"><circle class="cls-2" cx="593.2" cy="1332.64" r="83.71" transform="translate(-1278.07 -439.15) rotate(-45)"/><circle class="cls-3" cx="593.2" cy="1332.64" r="80.91" transform="translate(-1278.07 -439.15) rotate(-45)"/><circle class="cls-4" cx="593.2" cy="1332.64" r="78.91" transform="translate(-1340.67 398.31) rotate(-78.46)"/><ellipse class="cls-5" cx="593.2" cy="1365.71" rx="54.71" ry="22.35" transform="translate(-527.12 -1241.14) rotate(-0.74)"/><g class="cls-1"><path class="cls-6" d="M631.78,1316.13h.33l.26,0h0l.25,0,.32.1.09,0,.22.09.18.09h0l-26.6-14.47-.13-.06,0,0-.22-.09-.09,0-.32-.1h0l-.25,0h-.05l-.26,0h-.66a1.43,1.43,0,0,0-.29,0l-47.08,6.61-.29,0-.07,0-.27.07h0l-.28.09-.07,0-.24.1h0l-.32.17,0,0-.3.19,0,0,0,0-.22.16h0l-.22.19,0,0,0,0-.16.15,0,0-.19.2h0l0,0-.15.17a.18.18,0,0,1-.05.07l-.14.18,0,0h0c-.06.08-.11.17-.16.25l0,.06-.12.21,0,0v0l-.15.31,0,.07c0,.1-.09.21-.13.32h0a.49.49,0,0,0,0,.11.42.42,0,0,1,0,.1l0,.12,0,.11a.56.56,0,0,0,0,.12.43.43,0,0,1,0,.11l0,.13s0,.06,0,.1a.59.59,0,0,0,0,.13s0,.07,0,.1,0,.1,0,.15a.28.28,0,0,1,0,.09.92.92,0,0,1,0,.16v.08a1.93,1.93,0,0,0,0,.24l-.09,50a4.12,4.12,0,0,0,1.58,3.4,2.44,2.44,0,0,0,.43.28l26.6,15.27a4,4,0,0,1-2-3.67l.09-50.82a1.93,1.93,0,0,1,0-.24v-.08a.92.92,0,0,0,0-.16.28.28,0,0,0,0-.09s0-.1,0-.15,0-.06,0-.1a.59.59,0,0,1,0-.13s0-.07,0-.1l0-.13s0-.07,0-.11a.56.56,0,0,1,0-.12l0-.11,0-.12,0-.1a.56.56,0,0,1,0-.12c0-.11.09-.22.13-.32l0-.07.15-.31,0-.06.12-.21,0-.06c0-.08.1-.17.16-.25l0,0,.14-.18a.18.18,0,0,0,.05-.07l.15-.17,0,0,.19-.2,0,0,.16-.15.06-.06.22-.19h0l.22-.17.06,0,.3-.19.05,0,.32-.17,0,0,.24-.1.07,0,.28-.09h0l.26-.07.08,0,.29,0,47.08-6.61a1.43,1.43,0,0,1,.29,0h.06A2.43,2.43,0,0,1,631.78,1316.13Z" transform="translate(-509.5 -1248.93)"/><path class="cls-7" d="M635.5,1320.24l-.08,40.44v0l0,7.67a5.39,5.39,0,0,1-4.35,5.3L584,1383a3.82,3.82,0,0,1-4.33-4.07l0-18.25v-.05l.06-32.52a5.4,5.4,0,0,1,4.35-5.3l10.86-1.52H595l.15,0,.09,0h.12l35.79-5A3.84,3.84,0,0,1,635.5,1320.24Z" transform="translate(-509.5 -1248.93)"/><path class="cls-8" d="M635.5,1320.24l-.08,40.44v0l0,7.67a5.53,5.53,0,0,1-1.34,3.57,5.51,5.51,0,0,0,.72-2.68l0-7.67v0l.08-40.45c.07-3.1-1.94-4.41-4.34-4.07l-35.79,5h-.12l-.09,0-.15,0h-.07l-10.86,1.52a4.92,4.92,0,0,0-3,1.73,5.12,5.12,0,0,1,3.63-2.62l10.86-1.52H595l.15,0,.09,0h.12l35.79-5A3.84,3.84,0,0,1,635.5,1320.24Z" transform="translate(-509.5 -1248.93)"/><path class="cls-9" d="M587.19,1345.84l-1.71.3a1.64,1.64,0,0,1-1.92-1.62v-8.34a1.64,1.64,0,0,1,1.36-1.62l2.27-.39Z" transform="translate(-509.5 -1248.93)"/><path class="cls-10" d="M587.19,1370.2l-1.71.29a1.64,1.64,0,0,1-1.92-1.61v-8.35a1.62,1.62,0,0,1,1.36-1.61l2.27-.39Z" transform="translate(-509.5 -1248.93)"/><path class="cls-11" d="M600.43,1379.61l-.08,0L584,1383a3.82,3.82,0,0,1-4.33-4.07l0-18.25v-.05s0,.66,0,1.81,0,2.78,0,4.74,0,4.26,0,6.71v3.79c0,.32,0,.64,0,1a2.57,2.57,0,0,0,0,.48v.24a2.08,2.08,0,0,0,0,.23,4.24,4.24,0,0,0,.66,1.75,3.6,3.6,0,0,0,1.4,1.2,3.34,3.34,0,0,0,.44.17l.22.06.23,0a3.59,3.59,0,0,0,.46,0h.47l.22,0,.24,0,.47-.09.93-.19,1.83-.37c2.41-.49,4.66-.91,6.59-1.29s3.54-.68,4.66-.89Z" transform="translate(-509.5 -1248.93)"/><path class="cls-12" d="M588.29,1328.92l38-5.34a2.22,2.22,0,0,1,2.52,2.19l-.08,39.79a2.21,2.21,0,0,1-1.77,2.16l-38,7.43a2.21,2.21,0,0,1-2.65-2.17l.07-41.87A2.23,2.23,0,0,1,588.29,1328.92Z" transform="translate(-509.5 -1248.93)"/><path class="cls-12" d="M588.29,1328.92l38-5.34a2.22,2.22,0,0,1,2.52,2.19l-.08,39.79a2.21,2.21,0,0,1-1.77,2.16l-38,7.43a2.21,2.21,0,0,1-2.65-2.17l.07-41.87A2.23,2.23,0,0,1,588.29,1328.92Z" transform="translate(-509.5 -1248.93)"/><path class="cls-13" d="M628.82,1325.77l-.08,39.78a2.23,2.23,0,0,1-.94,1.81,2.22,2.22,0,0,0,.4-1.26l.08-39.78a2.22,2.22,0,0,0-2.52-2.2l-38,5.35a2.29,2.29,0,0,0-1,.37,2.24,2.24,0,0,1,1.5-.92l38-5.34A2.22,2.22,0,0,1,628.82,1325.77Z" transform="translate(-509.5 -1248.93)"/><path class="cls-14" d="M627.8,1367.36a3,3,0,0,1-.38.42h0a2.17,2.17,0,0,1-1.24.74l-38,7.43a2.21,2.21,0,0,1-2.65-2.17l.08-41.87a3.3,3.3,0,0,1,1.2-2.07,2.23,2.23,0,0,0-.4,1.27l-.07,41.87a2.21,2.21,0,0,0,2.65,2.17l38-7.43A2.3,2.3,0,0,0,627.8,1367.36Z" transform="translate(-509.5 -1248.93)"/><path class="cls-15" d="M628.28,1326.32l-.08,39.78a2.22,2.22,0,0,1-.4,1.26,2.3,2.3,0,0,1-.83.36l-38,7.43a2.21,2.21,0,0,1-2.65-2.17l.07-41.87a2.23,2.23,0,0,1,.4-1.27,2.29,2.29,0,0,1,1-.37l38-5.35A2.22,2.22,0,0,1,628.28,1326.32Z" transform="translate(-509.5 -1248.93)"/></g><path class="cls-16" d="M633.48,1316.56l-.18-.09-.22-.09-.09,0-.32-.1-.25,0h-.06l-.25,0h-.33a2.43,2.43,0,0,0-.27,0h-.06l-.29,0-43.72,6.15-3.36.47-.29,0-.08,0-.26.07h0l-.28.09-.07,0-.24.1,0,0-.32.17-.05,0-.3.19-.06,0-.22.17h0l-.22.19-.06.06-.16.15,0,0a1.8,1.8,0,0,0-.19.2l0,0-.15.17-.05.07-.14.18,0,0c-.06.08-.11.17-.16.25l0,.06-.12.21,0,.06-.15.31,0,.07c0,.1-.09.21-.13.32l0,.12,0,.1,0,.12,0,.11a.56.56,0,0,0,0,.12s0,.07,0,.11l0,.13s0,.06,0,.1a.59.59,0,0,0,0,.13s0,.07,0,.1,0,.1,0,.15v.09a.92.92,0,0,1,0,.16v.08a1.93,1.93,0,0,0,0,.24v1.83l-.09,49a4,4,0,0,0,2,3.67l-26.6-15.27a2.44,2.44,0,0,1-.43-.28,4.11,4.11,0,0,1-1.58-3.39l.09-47.93v-2.09a1.93,1.93,0,0,1,0-.24v-.24a.28.28,0,0,0,0-.09s0-.1,0-.15,0-.06,0-.1a.59.59,0,0,1,0-.13s0-.07,0-.1l0-.13s0-.07,0-.11a.56.56,0,0,1,0-.12l0-.11,0-.12,0-.1,0-.11h0a3.05,3.05,0,0,1,.13-.32l0-.07.15-.31,0,0,0,0,.12-.21,0-.06a2.13,2.13,0,0,1,.16-.25h0l0,0,.13-.18a.18.18,0,0,0,.05-.07l.15-.17,0,0h0l.19-.2,0,0,.16-.15,0,0,0,0,.22-.19h0l.22-.16,0,0,0,0,.3-.19,0,0,.32-.17h0l.24-.1.07,0,.28-.09h0l.27-.07h.07l.29-.06,3-.42,44.1-6.19a1.43,1.43,0,0,1,.29,0h.66l.26,0h.05l.25,0h0l.32.1.09,0,.22.09,0,0,.13.06Z" transform="translate(-509.5 -1248.93)"/><path class="cls-17" d="M587.44,1322.31l-3.36.47-.29,0-.08,0-.26.07h0l-.28.09-.07,0-.24.1,0,0-.32.17-.05,0-.3.19-.06,0-.22.17h0l-.22.19-.06.06-.16.15,0,0a1.8,1.8,0,0,0-.19.2l0,0-.15.17-.05.07-.14.18,0,0c-.06.08-.11.17-.16.25l0,.06-.12.21,0,.06-.15.31,0,.07c0,.1-.09.21-.13.32l0,.12,0,.1,0,.12,0,.11a.56.56,0,0,0,0,.12s0,.07,0,.11l0,.13s0,.06,0,.1a.59.59,0,0,0,0,.13s0,.07,0,.1,0,.1,0,.15v.09a.92.92,0,0,1,0,.16v.08a1.93,1.93,0,0,0,0,.24v1.83l-26.6-14.21v-2.09a1.93,1.93,0,0,1,0-.24v-.24a.28.28,0,0,0,0-.09s0-.1,0-.15,0-.06,0-.1a.59.59,0,0,1,0-.13s0-.07,0-.1l0-.13s0-.07,0-.11a.56.56,0,0,1,0-.12l0-.11,0-.12,0-.1,0-.11h0a3.05,3.05,0,0,1,.13-.32l0-.07.15-.31,0,0,0,0,.12-.21,0-.06a2.13,2.13,0,0,1,.16-.25h0l0,0,.13-.18a.18.18,0,0,0,.05-.07l.15-.17,0,0h0l.19-.2,0,0,.16-.15,0,0,0,0,.22-.19h0l.22-.16,0,0,0,0,.3-.19,0,0,.32-.17h0l.24-.1.07,0,.28-.09h0l.27-.07h.07l.29-.06,3-.42Z" transform="translate(-509.5 -1248.93)"/><path class="cls-14" d="M620.8,1355.93a2.43,2.43,0,0,0-2-.45l-.52-.41a11.67,11.67,0,0,0-1-13.72l.44-.56a2.75,2.75,0,0,0,1.88-1,2.61,2.61,0,0,0-.27-3.64,2.55,2.55,0,0,0-3.58.55,2.79,2.79,0,0,0-.59,2.08l-.44.56a11.45,11.45,0,0,0-13.49,2.07l-.52-.42a2.4,2.4,0,0,0-.88-1.85,2.55,2.55,0,0,0-3.58.55,2.61,2.61,0,0,0,.27,3.64,2.35,2.35,0,0,0,2,.45l.52.42a11.68,11.68,0,0,0,1,13.71l-.45.56a2.76,2.76,0,0,0-1.87,1,2.6,2.6,0,0,0,.27,3.64,2.56,2.56,0,0,0,3.58-.55,2.79,2.79,0,0,0,.59-2.08l.44-.56a11.45,11.45,0,0,0,13.49-2.07l.52.41a2.38,2.38,0,0,0,.88,1.85,2.54,2.54,0,0,0,3.58-.55A2.61,2.61,0,0,0,620.8,1355.93Zm-11.31-10a3.7,3.7,0,0,0-2.21.34l-3.83-3.07a8.53,8.53,0,0,1,9.32-1.44Zm-4.41,3.13a3.8,3.8,0,0,0,.17,2.24l-3.29,4.17a8.72,8.72,0,0,1-.71-9.49Zm2.73,4.29A3.7,3.7,0,0,0,610,1353l3.83,3.08a8.51,8.51,0,0,1-9.33,1.43Zm4.41-3.12a3.79,3.79,0,0,0-.17-2.24l3.29-4.17a8.71,8.71,0,0,1,.71,9.49Z" transform="translate(-509.5 -1248.93)"/><path class="cls-18" d="M600.5,1342.11c-4.09,5.19-3.55,12.49,1.22,16.32s12,2.72,16-2.46,3.54-12.49-1.23-16.32S604.59,1336.93,600.5,1342.11Zm15.06,12.09c-3,3.86-8.39,4.68-11.94,1.83s-4-8.29-.92-12.15,8.4-4.68,11.95-1.83S618.61,1350.34,615.56,1354.2Z" transform="translate(-509.5 -1248.93)"/><path class="cls-19" d="M617.45,1355.71c-3.93,5-10.87,6-15.46,2.37s-5.11-10.72-1.18-15.71,10.88-6,15.46-2.38S621.39,1350.72,617.45,1355.71Zm-15.06-12.08c-3.19,4-2.76,9.76,1,12.74s9.35,2.12,12.54-1.92,2.76-9.76-1-12.74S605.58,1339.59,602.39,1343.63Z" transform="translate(-509.5 -1248.93)"/><path class="cls-20" d="M616.21,1336.08a2.79,2.79,0,0,0-.59,2.08l-6.67,8.46-7.78-6.24a2.4,2.4,0,0,0-.88-1.85,2.54,2.54,0,0,0-3.58.55,2.61,2.61,0,0,0,.27,3.64,2.43,2.43,0,0,0,2,.45l7.78,6.23-6.67,8.46a2.75,2.75,0,0,0-1.88,1,2.61,2.61,0,0,0,.27,3.64,2.55,2.55,0,0,0,3.58-.55,2.79,2.79,0,0,0,.59-2.08l6.67-8.45,7.78,6.24a2.4,2.4,0,0,0,.88,1.85,2.55,2.55,0,0,0,3.58-.55,2.61,2.61,0,0,0-.27-3.64,2.35,2.35,0,0,0-2-.45l-7.78-6.24,6.68-8.45a2.76,2.76,0,0,0,1.87-1,2.6,2.6,0,0,0-.27-3.64A2.56,2.56,0,0,0,616.21,1336.08Z" transform="translate(-509.5 -1248.93)"/><path class="cls-21" d="M600.25,1341.91a2.14,2.14,0,0,1-3,.46,2.17,2.17,0,0,1-.22-3,2.13,2.13,0,0,1,3-.46A2.17,2.17,0,0,1,600.25,1341.91Z" transform="translate(-509.5 -1248.93)"/><path class="cls-22" d="M621.23,1358.75a2.13,2.13,0,0,1-3,.45,2.24,2.24,0,1,1,3-.45Z" transform="translate(-509.5 -1248.93)"/><path class="cls-23" d="M601.74,1361.74a2.15,2.15,0,0,1-3,.46,2.18,2.18,0,0,1-.23-3,2.13,2.13,0,0,1,3-.46A2.18,2.18,0,0,1,601.74,1361.74Z" transform="translate(-509.5 -1248.93)"/><path class="cls-24" d="M619.75,1338.92a2.07,2.07,0,1,1-3.22-2.58,2.13,2.13,0,0,1,3-.46A2.17,2.17,0,0,1,619.75,1338.92Z" transform="translate(-509.5 -1248.93)"/><path class="cls-25" d="M606.35,1346.81a3.69,3.69,0,0,1,5.17-.8,3.76,3.76,0,0,1,.39,5.26,3.69,3.69,0,0,1-5.17.79A3.75,3.75,0,0,1,606.35,1346.81Z" transform="translate(-509.5 -1248.93)"/><path class="cls-26" d="M611.46,1350.9a3.1,3.1,0,0,1-4.33.67,3.14,3.14,0,0,1-.32-4.4,3.08,3.08,0,0,1,4.32-.66A3.14,3.14,0,0,1,611.46,1350.9Z" transform="translate(-509.5 -1248.93)"/><polygon class="cls-27" points="96.14 62.52 77.67 65.01 76.11 63.84 94.57 61.34 96.14 62.52"/><polygon class="cls-28" points="94.57 61.34 94.48 62.74 96.14 62.52 94.57 61.34"/><path class="cls-29" d="M595.29,1311.7a6.56,6.56,0,0,0,3.24-6.44c-.2-3.1-2.11-5.61-4.51-6.18l0-.22s-1.4.14-1.51.14a4.91,4.91,0,0,0-.67.09h0c-2.61.56-4.46,3.43-4.24,6.79.23,3.64,2.83,6.46,5.79,6.29.14,0,2-.18,2-.18Z" transform="translate(-509.5 -1248.93)"/><path class="cls-30" d="M593.35,1312.19c-3,.16-5.56-2.66-5.8-6.3-.21-3.36,1.64-6.23,4.25-6.79h0l.24,0h0c-2.61.56-4.47,3.44-4.25,6.79.23,3.64,2.86,6.48,5.83,6.32Z" transform="translate(-509.5 -1248.93)"/><path class="cls-31" d="M599.92,1305.15c.24,3.64-2,6.72-4.93,6.88s-5.56-2.66-5.8-6.3,2-6.72,4.94-6.88S599.69,1301.51,599.92,1305.15Z" transform="translate(-509.5 -1248.93)"/><path class="cls-32" d="M592.42,1311.15a6.87,6.87,0,0,1-3-5.43,7.1,7.1,0,0,1,1.23-4.62,4.6,4.6,0,0,1,3.49-2,4.4,4.4,0,0,1,2.56.67,6.87,6.87,0,0,1,3,5.43,7.11,7.11,0,0,1-1.24,4.62,4.6,4.6,0,0,1-3.49,2A4.37,4.37,0,0,1,592.42,1311.15Z" transform="translate(-509.5 -1248.93)"/><path class="cls-33" d="M592.54,1311a6.7,6.7,0,0,1-2.9-5.27,7,7,0,0,1,1.2-4.5,4.39,4.39,0,0,1,3.31-1.94,4.15,4.15,0,0,1,2.42.63,6.7,6.7,0,0,1,2.9,5.27,6.91,6.91,0,0,1-1.2,4.49,4.37,4.37,0,0,1-3.31,1.95A4.17,4.17,0,0,1,592.54,1311Z" transform="translate(-509.5 -1248.93)"/><path class="cls-34" d="M596.15,1310.67a4.43,4.43,0,0,0,1-1,6.32,6.32,0,0,0,1.08-4.11,6.06,6.06,0,0,0-2.59-4.79,3.48,3.48,0,0,0-2-.53,3.16,3.16,0,0,0-1.23.32,3.3,3.3,0,0,1,1.76-.63,3.47,3.47,0,0,1,2,.53,6,6,0,0,1,2.59,4.79,6.32,6.32,0,0,1-1.08,4.11A4.19,4.19,0,0,1,596.15,1310.67Z" transform="translate(-509.5 -1248.93)"/><path class="cls-35" d="M597.18,1309.63a4.43,4.43,0,0,1-1,1,3.55,3.55,0,0,1-1.23.32,3.43,3.43,0,0,1-2-.53,6,6,0,0,1-2.6-4.79,6.32,6.32,0,0,1,1.08-4.11,4.62,4.62,0,0,1,1-1,3.16,3.16,0,0,1,1.23-.32,3.48,3.48,0,0,1,2,.53,6.06,6.06,0,0,1,2.59,4.79A6.32,6.32,0,0,1,597.18,1309.63Z" transform="translate(-509.5 -1248.93)"/><path class="cls-36" d="M606.57,1285.46a6.55,6.55,0,0,0-5.76-4.33c-3.09-.35-5.89,1.09-6.88,3.34l-.22,0s-.12,1.41-.13,1.51a3.91,3.91,0,0,0,0,.68h0c.09,2.67,2.59,5,5.93,5.39,3.62.42,6.86-1.64,7.23-4.58,0-.14.16-2,.16-2Z" transform="translate(-509.5 -1248.93)"/><path class="cls-37" d="M606.71,1287.46c-.37,2.94-3.61,5-7.23,4.58-3.34-.38-5.84-2.72-5.93-5.39h0v-.24h0c.09,2.67,2.59,5,5.93,5.39,3.62.41,6.88-1.67,7.25-4.62C606.72,1287.32,606.71,1287.43,606.71,1287.46Z" transform="translate(-509.5 -1248.93)"/><path class="cls-38" d="M601,1279.74c3.62.41,6.26,3.14,5.9,6.08s-3.61,5-7.23,4.59-6.27-3.14-5.9-6.09S597.32,1279.33,601,1279.74Z" transform="translate(-509.5 -1248.93)"/><path class="cls-39" d="M605.52,1288.19a6.88,6.88,0,0,1-5.88,2,7.13,7.13,0,0,1-4.32-2,4.59,4.59,0,0,1-1.39-3.8A4.46,4.46,0,0,1,595,1282a6.88,6.88,0,0,1,5.88-2,7.07,7.07,0,0,1,4.33,2,4.63,4.63,0,0,1,1.39,3.8A4.41,4.41,0,0,1,605.52,1288.19Z" transform="translate(-509.5 -1248.93)"/><path class="cls-33" d="M605.37,1288a6.63,6.63,0,0,1-5.7,1.91,7,7,0,0,1-4.21-2,4.4,4.4,0,0,1-1.32-3.61,4.14,4.14,0,0,1,1.05-2.26,6.68,6.68,0,0,1,5.7-1.92,6.89,6.89,0,0,1,4.21,2,4.37,4.37,0,0,1,1.33,3.61A4.15,4.15,0,0,1,605.37,1288Z" transform="translate(-509.5 -1248.93)"/><path class="cls-40" d="M605.71,1284.43a4.46,4.46,0,0,0-.84-1.19,6.33,6.33,0,0,0-3.85-1.8,6,6,0,0,0-5.17,1.71A3.35,3.35,0,0,0,595,1285a3,3,0,0,0,.1,1.27,3.29,3.29,0,0,1-.31-1.84,3.42,3.42,0,0,1,.88-1.86,6,6,0,0,1,5.17-1.71,6.33,6.33,0,0,1,3.85,1.8A4.16,4.16,0,0,1,605.71,1284.43Z" transform="translate(-509.5 -1248.93)"/><path class="cls-41" d="M604.87,1283.24a4.46,4.46,0,0,1,.84,1.19,3.22,3.22,0,0,1,.1,1.27,3.49,3.49,0,0,1-.88,1.87,6,6,0,0,1-5.17,1.7,6.32,6.32,0,0,1-3.85-1.79,4.29,4.29,0,0,1-.84-1.2,3,3,0,0,1-.1-1.27,3.35,3.35,0,0,1,.88-1.86,6,6,0,0,1,5.17-1.71A6.33,6.33,0,0,1,604.87,1283.24Z" transform="translate(-509.5 -1248.93)"/><path class="cls-42" d="M577.44,1296.06a6.57,6.57,0,0,0-3.31-6.4c-2.63-1.66-5.78-1.58-7.65,0l-.2-.12-.76,1.31a4.36,4.36,0,0,0-.33.6h0c-1.08,2.44.15,5.63,3,7.43,3.08,1.94,6.89,1.5,8.5-1l1-1.71Z" transform="translate(-509.5 -1248.93)"/><path class="cls-43" d="M576.69,1297.92c-1.61,2.49-5.42,2.93-8.5,1-2.84-1.8-4.08-5-3-7.43h0l.11-.22h0c-1.08,2.44.16,5.63,3,7.43,3.08,1.94,6.92,1.48,8.54-1C576.76,1297.8,576.7,1297.89,576.69,1297.92Z" transform="translate(-509.5 -1248.93)"/><path class="cls-44" d="M574.86,1288.47c3.08,1.94,4.28,5.54,2.66,8s-5.41,2.93-8.5,1-4.28-5.55-2.67-8S571.77,1286.52,574.86,1288.47Z" transform="translate(-509.5 -1248.93)"/><path class="cls-45" d="M575.3,1298.07a6.86,6.86,0,0,1-6.15-.77,7.06,7.06,0,0,1-3-3.71,4.6,4.6,0,0,1,.4-4,4.43,4.43,0,0,1,2.05-1.68,6.86,6.86,0,0,1,6.15.77,7.06,7.06,0,0,1,3,3.71,4.6,4.6,0,0,1-.4,4A4.48,4.48,0,0,1,575.3,1298.07Z" transform="translate(-509.5 -1248.93)"/><path class="cls-33" d="M575.24,1297.86a6.67,6.67,0,0,1-6-.75,6.84,6.84,0,0,1-2.93-3.61,4.37,4.37,0,0,1,.37-3.82,4.14,4.14,0,0,1,1.93-1.58,6.67,6.67,0,0,1,6,.75,6.84,6.84,0,0,1,2.93,3.61,4.37,4.37,0,0,1-.37,3.82A4.19,4.19,0,0,1,575.24,1297.86Z" transform="translate(-509.5 -1248.93)"/><path class="cls-46" d="M577.1,1294.76a4.37,4.37,0,0,0-.23-1.44,6.34,6.34,0,0,0-2.69-3.29,6,6,0,0,0-5.4-.71,3.45,3.45,0,0,0-1.6,1.3,3.16,3.16,0,0,0-.46,1.18,3.28,3.28,0,0,1,.52-1.79,3.4,3.4,0,0,1,1.6-1.3,6.07,6.07,0,0,1,5.4.71,6.4,6.4,0,0,1,2.69,3.3A4.14,4.14,0,0,1,577.1,1294.76Z" transform="translate(-509.5 -1248.93)"/><path class="cls-47" d="M576.87,1293.32a4.37,4.37,0,0,1,.23,1.44,3.14,3.14,0,0,1-.46,1.19,3.45,3.45,0,0,1-1.6,1.3,6.07,6.07,0,0,1-5.4-.71,6.4,6.4,0,0,1-2.69-3.3,4.33,4.33,0,0,1-.23-1.44,3.16,3.16,0,0,1,.46-1.18,3.45,3.45,0,0,1,1.6-1.3,6,6,0,0,1,5.4.71A6.34,6.34,0,0,1,576.87,1293.32Z" transform="translate(-509.5 -1248.93)"/><path class="cls-48" d="M584.11,1278.4a6.55,6.55,0,0,0,.22-7.2c-1.5-2.73-4.29-4.19-6.7-3.7l-.12-.19-1.3.77a4.28,4.28,0,0,0-.57.37h0c-2.13,1.61-2.6,5-1,8,1.76,3.2,5.3,4.66,7.92,3.26l1.71-1Z" transform="translate(-509.5 -1248.93)"/><path class="cls-49" d="M582.56,1279.67c-2.62,1.4-6.16-.07-7.92-3.26-1.61-3-1.14-6.34,1-8h0l.19-.14h0c-2.13,1.61-2.6,5-1,8,1.75,3.19,5.34,4.66,8,3.26Z" transform="translate(-509.5 -1248.93)"/><path class="cls-50" d="M585.54,1270.51c1.76,3.2,1.05,6.93-1.57,8.33s-6.16-.06-7.91-3.26-1-6.93,1.57-8.33S583.79,1267.31,585.54,1270.51Z" transform="translate(-509.5 -1248.93)"/><path class="cls-51" d="M581.27,1279.12a6.84,6.84,0,0,1-5-3.65,7.09,7.09,0,0,1-.83-4.71,4.63,4.63,0,0,1,2.3-3.33,4.49,4.49,0,0,1,2.6-.47,6.88,6.88,0,0,1,5,3.66,7.16,7.16,0,0,1,.84,4.71,4.6,4.6,0,0,1-2.31,3.32A4.33,4.33,0,0,1,581.27,1279.12Z" transform="translate(-509.5 -1248.93)"/><path class="cls-33" d="M581.32,1278.91a6.67,6.67,0,0,1-4.86-3.55,7,7,0,0,1-.81-4.58,4.35,4.35,0,0,1,2.18-3.16,4.19,4.19,0,0,1,2.46-.45,6.66,6.66,0,0,1,4.85,3.56,6.93,6.93,0,0,1,.81,4.57,4.37,4.37,0,0,1-2.18,3.17A4.17,4.17,0,0,1,581.32,1278.91Z" transform="translate(-509.5 -1248.93)"/><path class="cls-52" d="M584.45,1277.11a4.62,4.62,0,0,0,.5-1.38,6.36,6.36,0,0,0-.76-4.18,6,6,0,0,0-4.37-3.24,3.42,3.42,0,0,0-2,.36,3.29,3.29,0,0,0-1,.81,3.35,3.35,0,0,1,1.33-1.31,3.39,3.39,0,0,1,2-.36,6.05,6.05,0,0,1,4.38,3.24,6.36,6.36,0,0,1,.75,4.18A4.16,4.16,0,0,1,584.45,1277.11Z" transform="translate(-509.5 -1248.93)"/><path class="cls-53" d="M585,1275.73a4.62,4.62,0,0,1-.5,1.38,3.2,3.2,0,0,1-1,.81,3.46,3.46,0,0,1-2,.36,6,6,0,0,1-4.37-3.24,6.36,6.36,0,0,1-.76-4.18,4.51,4.51,0,0,1,.49-1.38,3.29,3.29,0,0,1,1-.81,3.42,3.42,0,0,1,2-.36,6,6,0,0,1,4.37,3.24A6.36,6.36,0,0,1,585,1275.73Z" transform="translate(-509.5 -1248.93)"/><g class="cls-54"><rect class="cls-55" x="628.62" y="1286.96" width="16.38" height="27.75" rx="1.19" transform="matrix(0.25, -0.97, 0.97, 0.25, -1292.04, 340.2)"/><path class="cls-56" d="M649.22,1300.61a2.71,2.71,0,1,1-1.94-3.3A2.7,2.7,0,0,1,649.22,1300.61Z" transform="translate(-509.5 -1248.93)"/><path class="cls-56" d="M641.05,1307.83l6.11,1.59" transform="translate(-509.5 -1248.93)"/><path class="cls-56" d="M632.32,1305.55l6.1,1.59" transform="translate(-509.5 -1248.93)"/><path class="cls-56" d="M623.58,1303.28l6.1,1.59" transform="translate(-509.5 -1248.93)"/><path class="cls-55" d="M623.38,1297.33l-2.2-.57a1.18,1.18,0,0,1-.85-1.45l3.53-13.55a1.18,1.18,0,0,1,1.45-.85l24.55,6.39a1.2,1.2,0,0,1,.85,1.45l-1.77,6.78" transform="translate(-509.5 -1248.93)"/><line class="cls-56" x1="114.06" y1="33.99" x2="140.87" y2="40.97"/><line class="cls-56" x1="113.24" y1="37.14" x2="140.04" y2="44.13"/></g><g class="cls-54"><circle class="cls-55" cx="535.68" cy="1323.07" r="10.97" transform="translate(-814.69 -1079.29) rotate(-14.05)"/><path class="cls-56" d="M544.28,1320a9.13,9.13,0,1,1-11.65-5.56A9.12,9.12,0,0,1,544.28,1320Z" transform="translate(-509.5 -1248.93)"/><path class="cls-56" d="M539.14,1323.6a2.24,2.24,0,0,1-.19,2.09,4.27,4.27,0,0,1-2.23,1.48,8.36,8.36,0,0,1-1.46.4,6.35,6.35,0,0,1-1.22.06l-.62-1.73a8.16,8.16,0,0,0,1.48,0,5.74,5.74,0,0,0,1.35-.27c.76-.27,1.06-.62.9-1.06a.57.57,0,0,0-.29-.35,2.55,2.55,0,0,0-.64-.16c-.3,0-.68-.08-1.15-.11a6.82,6.82,0,0,1-1.54-.22,2,2,0,0,1-.86-.51,2.57,2.57,0,0,1-.55-.94,2,2,0,0,1,.23-1.86,4.09,4.09,0,0,1,2-1.35,6.61,6.61,0,0,1,2.91-.35l-.1,1.73c-.44,0-.85,0-1.22,0a3.51,3.51,0,0,0-1.07.21c-.62.22-.87.49-.75.83a.63.63,0,0,0,.47.38,9.39,9.39,0,0,0,1.52.14,6.56,6.56,0,0,1,1.56.22,2.19,2.19,0,0,1,.87.5A2.46,2.46,0,0,1,539.14,1323.6Z" transform="translate(-509.5 -1248.93)"/><path class="cls-56" d="M537.11,1327.1l.62,1.75" transform="translate(-509.5 -1248.93)"/><path class="cls-56" d="M533.63,1317.3l.63,1.76" transform="translate(-509.5 -1248.93)"/></g><g class="cls-57"><path class="cls-58" d="M537.09,1344.26a3.2,3.2,0,0,0-1.84,3.85,3,3,0,0,1-2-5.72A3.21,3.21,0,0,0,537.09,1344.26Z" transform="translate(-509.5 -1248.93)"/></g><g class="cls-57"><path class="cls-58" d="M555.55,1301.92a3.2,3.2,0,0,0-3.64,2.23,3,3,0,0,1,1.43-5.88A3.2,3.2,0,0,0,555.55,1301.92Z" transform="translate(-509.5 -1248.93)"/></g><g class="cls-57"><path class="cls-58" d="M604.67,1390.17a3.21,3.21,0,0,0-3.64,2.23,3,3,0,0,1,1.44-5.88A3.19,3.19,0,0,0,604.67,1390.17Z" transform="translate(-509.5 -1248.93)"/></g><g class="cls-57"><path class="cls-58" d="M537.21,1294.91a3.22,3.22,0,0,0-2.2,3.66,3,3,0,0,1-1.44-5.89A3.19,3.19,0,0,0,537.21,1294.91Z" transform="translate(-509.5 -1248.93)"/></g><g class="cls-57"><path class="cls-58" d="M559.57,1277.6A3.2,3.2,0,0,0,556,1280a3,3,0,0,1,1.2-5.94A3.21,3.21,0,0,0,559.57,1277.6Z" transform="translate(-509.5 -1248.93)"/></g><g class="cls-57"><ellipse class="cls-58" cx="601.5" cy="1268.59" rx="3.03" ry="3.01" transform="translate(-1221.78 514.7) rotate(-85.28)"/></g><g class="cls-57"><path class="cls-58" d="M637.52,1275.74a3,3,0,1,1-5.54,2.36,3,3,0,1,1,5.54-2.36Z" transform="translate(-509.5 -1248.93)"/></g><g class="cls-57"><path class="cls-58" d="M661.41,1311.75a3,3,0,1,1-5.83-1.5,3,3,0,1,1,5.83,1.5Z" transform="translate(-509.5 -1248.93)"/></g><g class="cls-57"><path class="cls-58" d="M648.15,1331.8a3,3,0,1,1-6,.74,3,3,0,1,1,6-.74Z" transform="translate(-509.5 -1248.93)"/></g><g class="cls-57"><path class="cls-58" d="M664,1349.49a3,3,0,1,1-5.74-1.81,3,3,0,1,1,5.74,1.81Z" transform="translate(-509.5 -1248.93)"/></g><text class="cls-59" transform="translate(20.92 121.54) rotate(52.01)">W</text><text class="cls-59" transform="matrix(0.78, 0.62, -0.62, 0.78, 33.95, 137.33)">A</text><text class="cls-59" transform="matrix(0.88, 0.48, -0.48, 0.88, 45.17, 145.96)">L</text><text class="cls-59" transform="translate(55.2 151.3) rotate(19.6)">L</text><text class="cls-59" transform="translate(66 155.06) rotate(10.15)">E</text><text class="cls-59" transform="translate(78.33 157.08) rotate(0.93)">T</text><text class="cls-59" transform="translate(89.65 157.02) rotate(-5.89)"> </text><text class="cls-59" transform="translate(95.49 156.52) rotate(-12.78)">S</text><text class="cls-59" transform="translate(106.83 153.71) rotate(-20)">I</text><text class="cls-59" transform="translate(113.09 151.52) rotate(-27.23)">S</text><text class="cls-59" transform="translate(124.35 146.01) rotate(-40.35)">W</text><text class="cls-59" transform="translate(139.6 132.33) rotate(-53.77)">A</text></g></g></svg>